<svg width="10" height="11" viewBox="0 0 10 11" fill="none" xmlns="http://www.w3.org/2000/svg">
<path fill-rule="evenodd" clip-rule="evenodd" d="M9.38921 1.75904C9.58107 1.75904 9.74079 1.91834 9.74079 2.12103V2.30844C9.74079 2.5062 9.58107 2.67043 9.38921 2.67043H1.21558C1.02325 2.67043 0.863525 2.5062 0.863525 2.30844V2.12103C0.863525 1.91834 1.02325 1.75904 1.21558 1.75904H2.65356C2.94566 1.75904 3.19988 1.55141 3.26559 1.25847L3.34089 0.922119C3.45792 0.463958 3.84308 0.159668 4.28387 0.159668H6.32045C6.75644 0.159668 7.14591 0.463958 7.25863 0.897953L7.33921 1.25797C7.40444 1.55141 7.65865 1.75904 7.95124 1.75904H9.38921ZM8.65873 8.60976C8.80886 7.21062 9.07171 3.88661 9.07171 3.85307C9.0813 3.75148 9.0482 3.65531 8.98249 3.57788C8.91198 3.50538 8.82277 3.46248 8.72444 3.46248H1.88375C1.78494 3.46248 1.69093 3.50538 1.6257 3.57788C1.55951 3.65531 1.52689 3.75148 1.53169 3.85307C1.53257 3.85924 1.542 3.97632 1.55777 4.17207C1.62782 5.04167 1.82291 7.46368 1.94898 8.60976C2.03819 9.45408 2.59218 9.98474 3.39463 10.004C4.01385 10.0183 4.65178 10.0232 5.3041 10.0232C5.91852 10.0232 6.54254 10.0183 7.18095 10.004C8.01121 9.98967 8.56472 9.46838 8.65873 8.60976Z" fill="white"/>
</svg>
