<svg width="11" height="11" viewBox="0 0 11 11" fill="none" xmlns="http://www.w3.org/2000/svg">
<path fill-rule="evenodd" clip-rule="evenodd" d="M3.65331 9.49061L8.46807 3.26421C8.72974 2.92845 8.82278 2.54025 8.73556 2.14499C8.65997 1.78566 8.439 1.44401 8.10755 1.18482L7.29927 0.54274C6.59567 -0.0168694 5.72343 0.0420369 5.22334 0.684116L4.68256 1.38569C4.61278 1.47346 4.63022 1.60305 4.71745 1.67374C4.71745 1.67374 6.08395 2.7694 6.11303 2.79296C6.20607 2.88132 6.27585 2.99913 6.29329 3.14051C6.32237 3.41737 6.13047 3.67656 5.84554 3.7119C5.7118 3.72957 5.58387 3.68834 5.49083 3.61176L4.05454 2.46898C3.98477 2.41655 3.8801 2.42774 3.82195 2.49843L0.408586 6.9164C0.187619 7.19326 0.112025 7.55259 0.187619 7.90014L0.623738 9.79103C0.646998 9.89117 0.734222 9.96186 0.838891 9.96186L2.75782 9.9383C3.10671 9.93241 3.43235 9.77336 3.65331 9.49061ZM6.34018 8.90174H9.46919C9.77447 8.90174 10.0228 9.15326 10.0228 9.46252C10.0228 9.77237 9.77447 10.0233 9.46919 10.0233H6.34018C6.03489 10.0233 5.7866 9.77237 5.7866 9.46252C5.7866 9.15326 6.03489 8.90174 6.34018 8.90174Z" fill="white"/>
</svg>
