<svg xmlns="http://www.w3.org/2000/svg" width="20" height="18" viewBox="0 0 20 18" fill="none">
  <path d="M19.9999 2C19.9999 3.10457 19.1045 4 17.9999 4C16.8953 4 15.9999 3.10457 15.9999 2C15.9999 0.89543 16.8953 0 17.9999 0C19.1045 0 19.9999 0.89543 19.9999 2Z" fill="white" fill-opacity="0.7"/>
  <path d="M15.067 0.0890558C14.7083 0.638474 14.4998 1.29489 14.4998 2C14.4998 3.20645 15.1102 4.27032 16.039 4.89963C14.6132 6.32276 13.543 7.36839 12.6069 8.08267C11.5814 8.8651 10.8052 9.17894 9.99962 9.17894C9.194 9.17894 8.41787 8.8651 7.39237 8.08267C6.34956 7.28703 5.14054 6.08027 3.45888 4.39861L1.51563 2.45535L1.1086 2.09007L0.999756 2C1.30815 1.57553 1.63636 1.26331 2.06083 0.954915C3.37516 0 5.25002 0 8.99976 0H10.9998C12.7002 0 14.0151 -2.16067e-07 15.067 0.0890558Z" fill="white" fill-opacity="0.7"/>
  <path d="M17.5846 5.47564L17.5604 5.49986C15.9282 7.13214 14.649 8.41132 13.5167 9.2752C12.3578 10.1594 11.2651 10.6789 9.99962 10.6789C8.73417 10.6789 7.64143 10.1594 6.4825 9.2752C5.35024 8.41132 4.07107 7.13213 2.4388 5.49984L0.483611 3.54466L0.332978 3.40947C-0.000244141 4.64946 -0.000244141 6.36008 -0.000244141 9C-0.000244141 12.7497 -0.000244141 14.6246 0.954671 15.9389C1.26307 16.3634 1.63636 16.7367 2.06083 17.0451C3.37516 18 5.25002 18 8.99976 18H10.9998C14.7495 18 16.6244 18 17.9387 17.0451C18.3632 16.7367 18.7364 16.3634 19.0448 15.9389C19.9998 14.6246 19.9998 12.7497 19.9998 9C19.9998 7.2996 19.9998 5.98474 19.9107 4.93286C19.4083 5.26082 18.8165 5.4632 18.1799 5.49545C18.1239 5.49828 18.0677 5.4998 18.0111 5.49998C18.0074 5.49999 18.0036 5.5 17.9999 5.5C17.9999 5.5 18 5.5 17.9999 5.5C17.8942 5.5 17.7894 5.49531 17.6861 5.48614C17.6521 5.48312 17.6183 5.47962 17.5846 5.47564Z" fill="white" fill-opacity="0.7"/>
</svg>