<svg xmlns="http://www.w3.org/2000/svg" width="20" height="18" viewBox="0 0 20 18" fill="none">
  <path d="M19.5057 2.45059C19.5057 3.48014 18.6711 4.31476 17.6415 4.31476C16.612 4.31476 15.7774 3.48014 15.7774 2.45059C15.7774 1.42104 16.612 0.586426 17.6415 0.586426C18.6711 0.586426 19.5057 1.42104 19.5057 2.45059Z" fill="#2D264B"/>
  <path d="M14.9078 0.669433C14.5734 1.18154 14.3791 1.79337 14.3791 2.45059C14.3791 3.5751 14.9481 4.56672 15.8138 5.15329C14.4848 6.47976 13.4874 7.45438 12.6148 8.12015C11.6589 8.84944 10.9355 9.14196 10.1846 9.14196C9.4337 9.14196 8.71028 8.84944 7.75442 8.12015C6.78244 7.37855 5.65553 6.25374 4.08809 4.68629L2.27681 2.87502L1.89743 2.53454L1.79597 2.45059C2.08343 2.05495 2.38934 1.76394 2.78498 1.47649C4.01005 0.586426 5.75758 0.586426 9.25264 0.586426H11.1168C12.7018 0.586426 13.9274 0.586426 14.9078 0.669433Z" fill="#2D264B"/>
  <path d="M17.2545 5.69018L17.2319 5.71275C15.7105 7.23418 14.5182 8.42648 13.4628 9.23169C12.3826 10.0559 11.3641 10.5401 10.1846 10.5401C9.00509 10.5401 7.98657 10.0559 6.90635 9.23169C5.85099 8.42648 4.65869 7.23417 3.13728 5.71274L1.31488 3.89034L1.17448 3.76434C0.863892 4.92011 0.863892 6.51455 0.863892 8.97518C0.863892 12.4702 0.863892 14.2178 1.75395 15.4428C2.0414 15.8385 2.38934 16.1864 2.78498 16.4739C4.01005 17.3639 5.75758 17.3639 9.25264 17.3639H11.1168C14.6119 17.3639 16.3594 17.3639 17.5845 16.4739C17.9801 16.1864 18.328 15.8385 18.6155 15.4428C19.5056 14.2178 19.5056 12.4702 19.5056 8.97518C19.5056 7.39026 19.5056 6.1647 19.4226 5.18426C18.9543 5.48995 18.4027 5.67858 17.8093 5.70864C17.7571 5.71128 17.7047 5.7127 17.6519 5.71287C17.6485 5.71288 17.645 5.71288 17.6415 5.71288C17.6416 5.71288 17.6415 5.71288 17.6415 5.71288C17.543 5.71288 17.4453 5.70852 17.349 5.69996C17.3174 5.69715 17.2859 5.69389 17.2545 5.69018Z" fill="#2D264B"/>
</svg>