<svg width="56" height="56" viewBox="0 0 56 56" fill="none" xmlns="http://www.w3.org/2000/svg">
<circle cx="28" cy="28" r="28" fill="url(#paint0_linear_637_2472)"/>
<path fill-rule="evenodd" clip-rule="evenodd" d="M29.2658 40.0442C29.2658 40.0442 28.1391 35.8233 28.4354 34.6718C28.7321 33.5202 29.9026 32.8262 31.0491 33.1215C32.1965 33.417 32.8856 34.5898 32.5892 35.7416C32.292 36.8928 29.2658 40.0442 29.2658 40.0442ZM31.1295 32.6441C29.7531 32.2896 28.3485 33.1224 27.9931 34.5045C27.8927 34.8942 27.9279 35.5774 28.0307 36.357L25.2248 34.6452C25.9641 33.8701 26.655 33.0936 26.9412 32.6222C27.6805 31.404 27.8021 30.1333 27.2131 29.7838C26.6234 29.4346 25.5463 30.1392 24.8068 31.3576C24.5228 31.8254 24.1544 32.7811 23.8084 33.781L20.9741 32.0518C21.7124 31.7857 22.3337 31.5041 22.6341 31.2364C23.7021 30.2841 23.8025 28.6508 22.8587 27.5883C22.4747 27.1562 21.9771 26.8849 21.4497 26.7793C21.8475 25.7171 22.3679 24.6423 23.0109 23.5885C24.2309 21.5888 25.7758 20.0967 27.3809 19.0517C27.7367 19.9183 28.276 20.7688 28.9748 21.5508C28.8925 21.651 28.8158 21.7578 28.7463 21.8717C27.9357 23.2004 28.3557 24.9347 29.6843 25.7453C31.013 26.5559 32.7473 26.1359 33.5579 24.8073C33.5983 24.7409 33.635 24.6733 33.6693 24.605C34.6823 24.9359 35.6948 25.0936 36.6499 25.0817C36.4176 26.8876 35.8011 28.815 34.6555 30.6928C34.0085 31.7533 33.2853 32.7128 32.5171 33.5574C32.1795 33.1223 31.7023 32.7922 31.1295 32.6441ZM32.8359 24.3668C32.2685 25.297 31.0545 25.5909 30.1243 25.0234C29.1944 24.4561 28.9002 23.242 29.4677 22.3119C30.035 21.382 31.2491 21.0877 32.1793 21.6552C33.1094 22.2227 33.4033 23.4369 32.8359 24.3668ZM32.6196 20.9335C31.566 20.2907 30.2573 20.4226 29.3564 21.1672C28.6789 20.4292 28.1447 19.6263 27.7752 18.8045C30.4033 17.2209 33.1335 16.8124 34.821 17.3247C36.0928 18.6362 36.9986 21.3957 36.7023 24.5995C35.7884 24.5842 34.8271 24.4163 33.8671 24.0924C34.196 22.9095 33.7198 21.6048 32.6196 20.9335ZM22.4701 27.8791C23.2569 28.7646 23.173 30.1255 22.2827 30.9195C21.393 31.7131 17.1201 32.6496 17.1201 32.6496C17.1201 32.6496 18.5444 28.5063 19.4345 27.7132C20.3243 26.9196 21.6837 26.9937 22.4701 27.8791ZM23.5136 34.6575L21.0648 33.1635C20.7992 33.0015 20.7152 32.6547 20.8772 32.3891L23.6964 34.1091C23.6339 34.2927 23.573 34.4766 23.5136 34.6575ZM22.7558 37.1011C22.7558 37.1011 23.5035 36.3934 24.3771 35.5151C25.2315 36.0363 25.9775 36.4914 26.018 36.5161C25.3697 37.5787 21.9045 38.496 21.9045 38.496C21.9045 38.496 21.1351 34.9952 21.7834 33.9326C21.8038 33.9451 22.5575 34.4049 23.4232 34.933C23.0428 36.1112 22.7558 37.1011 22.7558 37.1011ZM25.198 31.6909C25.817 30.673 26.6012 30.0142 26.9504 30.2189C27.2997 30.4235 27.0813 31.4138 26.4627 32.4312C25.8444 33.4488 23.2257 36.3311 23.2257 36.3311C23.2257 36.3311 24.5799 32.7082 25.198 31.6909ZM24.9848 34.8951L27.8055 36.616C27.6435 36.8816 27.2965 36.9654 27.0309 36.8034L24.581 35.3088C24.7147 35.1731 24.85 35.035 24.9848 34.8951Z" fill="white"/>
<defs>
<linearGradient id="paint0_linear_637_2472" x1="4.18182" y1="56" x2="62.4966" y2="16.3044" gradientUnits="userSpaceOnUse">
<stop stop-color="#7371FC"/>
<stop offset="1" stop-color="#A594F9"/>
</linearGradient>
</defs>
</svg>
