<svg width="56" height="56" viewBox="0 0 56 56" fill="none" xmlns="http://www.w3.org/2000/svg">
<circle cx="28" cy="28" r="28" fill="url(#paint0_linear_637_2444)"/>
<path d="M24.6506 26.3681C23.7855 25.5078 23.25 24.3164 23.25 23C23.25 21.6836 23.7855 20.4922 24.6506 19.6319C24.1526 19.3873 23.5923 19.25 23 19.25C20.9289 19.25 19.25 20.9289 19.25 23C19.25 25.0711 20.9289 26.75 23 26.75C23.5923 26.75 24.1526 26.6127 24.6506 26.3681Z" fill="white"/>
<path d="M24.25 23C24.25 20.9289 25.9289 19.25 28 19.25C30.0711 19.25 31.75 20.9289 31.75 23C31.75 25.0711 30.0711 26.75 28 26.75C25.9289 26.75 24.25 25.0711 24.25 23Z" fill="white"/>
<path d="M31.3494 19.6319C32.2145 20.4922 32.75 21.6836 32.75 23C32.75 24.3164 32.2145 25.5078 31.3494 26.3681C31.8474 26.6127 32.4077 26.75 33 26.75C35.0711 26.75 36.75 25.0711 36.75 23C36.75 20.9289 35.0711 19.25 33 19.25C32.4077 19.25 31.8474 19.3873 31.3494 19.6319Z" fill="white"/>
<path d="M21.25 32C21.25 29.9289 22.9289 28.25 25 28.25H31C33.0711 28.25 34.75 29.9289 34.75 32C34.75 34.0711 33.0711 35.75 31 35.75H25C22.9289 35.75 21.25 34.0711 21.25 32Z" fill="white"/>
<path d="M16.25 31C16.25 28.9289 17.9289 27.25 20 27.25H25C22.3766 27.25 20.25 29.3766 20.25 32C20.25 33.0249 20.5746 33.9739 21.1266 34.75H20C17.9289 34.75 16.25 33.0711 16.25 31Z" fill="white"/>
<path d="M35.75 32C35.75 33.0249 35.4254 33.9739 34.8734 34.75H36C38.0711 34.75 39.75 33.0711 39.75 31C39.75 28.9289 38.0711 27.25 36 27.25H31C33.6234 27.25 35.75 29.3766 35.75 32Z" fill="white"/>
<defs>
<linearGradient id="paint0_linear_637_2444" x1="4.18182" y1="56" x2="62.4966" y2="16.3044" gradientUnits="userSpaceOnUse">
<stop stop-color="#7371FC"/>
<stop offset="1" stop-color="#A594F9"/>
</linearGradient>
</defs>
</svg>
