<svg width="56" height="56" viewBox="0 0 56 56" fill="none" xmlns="http://www.w3.org/2000/svg">
<circle cx="28" cy="28" r="28" fill="url(#paint0_linear_637_2458)"/>
<path d="M37.9999 21C37.9999 22.1046 37.1045 23 35.9999 23C34.8953 23 33.9999 22.1046 33.9999 21C33.9999 19.8954 34.8953 19 35.9999 19C37.1045 19 37.9999 19.8954 37.9999 21Z" fill="white"/>
<path d="M33.067 19.0891C32.7083 19.6385 32.4998 20.2949 32.4998 21C32.4998 22.2064 33.1102 23.2703 34.039 23.8996C32.6132 25.3228 31.543 26.3684 30.6069 27.0827C29.5814 27.8651 28.8052 28.1789 27.9996 28.1789C27.194 28.1789 26.4179 27.8651 25.3924 27.0827C24.3496 26.287 23.1405 25.0803 21.4589 23.3986L19.5156 21.4554L19.1086 21.0901L18.9998 21C19.3082 20.5755 19.6364 20.2633 20.0608 19.9549C21.3752 19 23.25 19 26.9998 19H28.9998C30.7002 19 32.0151 19 33.067 19.0891Z" fill="white"/>
<path d="M35.5846 24.4756L35.5604 24.4999C33.9282 26.1321 32.649 27.4113 31.5167 28.2752C30.3578 29.1594 29.2651 29.6789 27.9996 29.6789C26.7342 29.6789 25.6414 29.1594 24.4825 28.2752C23.3502 27.4113 22.0711 26.1321 20.4388 24.4998L18.4836 22.5447L18.333 22.4095C17.9998 23.6495 17.9998 25.3601 17.9998 28C17.9998 31.7497 17.9998 33.6246 18.9547 34.9389C19.2631 35.3634 19.6364 35.7367 20.0608 36.0451C21.3752 37 23.25 37 26.9998 37H28.9998C32.7495 37 34.6244 37 35.9387 36.0451C36.3632 35.7367 36.7364 35.3634 37.0448 34.9389C37.9998 33.6246 37.9998 31.7497 37.9998 28C37.9998 26.2996 37.9998 24.9847 37.9107 23.9329C37.4083 24.2608 36.8165 24.4632 36.1799 24.4954C36.1239 24.4983 36.0677 24.4998 36.0111 24.5C36.0074 24.5 36.0036 24.5 35.9999 24.5C35.9999 24.5 36 24.5 35.9999 24.5C35.8942 24.5 35.7894 24.4953 35.6861 24.4861C35.6521 24.4831 35.6183 24.4796 35.5846 24.4756Z" fill="white"/>
<defs>
<linearGradient id="paint0_linear_637_2458" x1="4.18182" y1="56" x2="62.4966" y2="16.3044" gradientUnits="userSpaceOnUse">
<stop stop-color="#7371FC"/>
<stop offset="1" stop-color="#A594F9"/>
</linearGradient>
</defs>
</svg>
