<svg xmlns="http://www.w3.org/2000/svg" width="32" height="40" viewBox="0 0 32 40" fill="none">
  <path fill-rule="evenodd" clip-rule="evenodd" d="M16.2658 28.0437C16.2658 28.0437 15.1391 23.8228 15.4353 22.6713C15.732 21.5197 16.9026 20.8257 18.049 21.121C19.1964 21.4165 19.8855 22.5893 19.5891 23.7411C19.2919 24.8924 16.2658 28.0437 16.2658 28.0437ZM18.1294 20.6436C16.753 20.2892 15.3485 21.1219 14.993 22.504C14.8927 22.8937 14.9278 23.5769 15.0306 24.3565L12.2248 22.6447C12.964 21.8696 13.655 21.0931 13.9411 20.6217C14.6805 19.4036 14.8021 18.1328 14.213 17.7833C13.6234 17.4341 12.5462 18.1387 11.8067 19.3572C11.5227 19.8249 11.1544 20.7806 10.8083 21.7805L7.97403 20.0513C8.71236 19.7852 9.33365 19.5036 9.63399 19.2359C10.7021 18.2837 10.8024 16.6503 9.85867 15.5878C9.47464 15.1557 8.97701 14.8844 8.44964 14.7788C8.84744 13.7166 9.36788 12.6418 10.0108 11.588C11.2308 9.58833 12.7758 8.09625 14.3808 7.05125C14.7367 7.91779 15.2759 8.7683 15.9747 9.55027C15.8925 9.65051 15.8157 9.75727 15.7462 9.87123C14.9356 11.1999 15.3556 12.9342 16.6842 13.7448C18.0129 14.5554 19.7472 14.1354 20.5578 12.8068C20.5983 12.7404 20.635 12.6728 20.6693 12.6045C21.6823 12.9354 22.6948 13.0931 23.6498 13.0812C23.4175 14.8871 22.8011 16.8145 21.6555 18.6923C21.0085 19.7528 20.2853 20.7124 19.517 21.5569C19.1794 21.1218 18.7022 20.7917 18.1294 20.6436ZM19.8359 12.3663C19.2684 13.2965 18.0544 13.5904 17.1243 13.023C16.1944 12.4556 15.9002 11.2415 16.4676 10.3114C17.035 9.38147 18.2491 9.08724 19.1792 9.65472C20.1094 10.2222 20.4032 11.4364 19.8359 12.3663ZM19.6195 8.93303C18.5659 8.29024 17.2573 8.42206 16.3563 9.16669C15.6789 8.42867 15.1446 7.62584 14.7751 6.80406C17.4032 5.22037 20.1335 4.81195 21.8209 5.32416C23.0928 6.63568 23.9985 9.39521 23.7022 12.599C22.7884 12.5837 21.8271 12.4158 20.8671 12.0919C21.1959 10.909 20.7197 9.60426 19.6195 8.93303ZM9.47008 15.8786C10.2568 16.7641 10.173 18.125 9.28266 18.919C8.39292 19.7126 4.12 20.6492 4.12 20.6492C4.12 20.6492 5.54436 16.5058 6.43446 15.7127C7.3242 14.9191 8.6836 14.9932 9.47008 15.8786ZM10.5135 22.657L8.0647 21.163C7.79912 21.001 7.71515 20.6542 7.87717 20.3886L10.6963 22.1086C10.6338 22.2922 10.573 22.4761 10.5135 22.657ZM9.75577 25.1007C9.75577 25.1007 10.5035 24.3929 11.3771 23.5146C12.2314 24.0358 12.9775 24.4909 13.0179 24.5156C12.3697 25.5782 8.90445 26.4955 8.90445 26.4955C8.90445 26.4955 8.13503 22.9947 8.78329 21.9321C8.80378 21.9446 9.55749 22.4044 10.4231 22.9326C10.0427 24.1108 9.75577 25.1007 9.75577 25.1007ZM12.198 19.6904C12.8169 18.6725 13.6011 18.0138 13.9504 18.2184C14.2996 18.423 14.0813 19.4133 13.4627 20.4307C12.8443 21.4483 10.2256 24.3306 10.2256 24.3306C10.2256 24.3306 11.5798 20.7077 12.198 19.6904ZM11.9848 22.8947L14.8055 24.6155C14.6434 24.8811 14.2964 24.9649 14.0308 24.8029L11.581 23.3083C11.7147 23.1727 11.8499 23.0345 11.9848 22.8947Z" fill="white" fill-opacity="0.7"/>
</svg>